inDegrees=yes
name=ik_Xsens
DataType=double
version=3
OpenSimVersion=4.4-2022-07-23-0e9fedc
endheader
time	pelvis_tilt	pelvis_list	pelvis_rotation	pelvis_tx	pelvis_ty	pelvis_tz	hip_flexion_r	hip_adduction_r	hip_rotation_r	knee_angle_r	knee_angle_r_beta	ankle_angle_r	subtalar_angle_r	mtp_angle_r	hip_flexion_l	hip_adduction_l	hip_rotation_l	knee_angle_l	knee_angle_l_beta	ankle_angle_l	subtalar_angle_l	mtp_angle_l	lumbar_extension	lumbar_bending	lumbar_rotation	arm_flex_r	arm_add_r	arm_rot_r	elbow_flex_r	pro_sup_r	wrist_flex_r	wrist_dev_r	arm_flex_l	arm_add_l	arm_rot_l	elbow_flex_l	pro_sup_l	wrist_flex_l	wrist_dev_l
0	0	0	0	0	0.93	0	0	0	0	0	0	0	0	0	0	0	0	0	0	0	0	0	0	0	0	0.8196288896770987	-3.578544631914855	-3.145040748616347	44.02964047586671	2.311627531348007	0	0	-3.102832230254704e-13	-6.42719556712442e-13	-1.010493944899727e-11	-4.404711780764539e-13	-6.032943479430021e-12	0	0
0.01666666666666667	0	0	0	0	0.93	0	0	0	0	0	0	0	0	0	0	0	0	0	0	0	0	0	0	0	0	0.5953404191837458	-3.912674431247513	-3.138309437736532	44.52061450274087	1.895355670544954	0	0	-0.1402937304492421	0.004911959286805592	-0.06256041011685003	0.07820234845125959	-0.01758085698576362	0	0
0.03333333333333333	4.923562040582567e-28	-6.204524694981347e-19	2.644812653791655e-28	-7.064492754744131e-22	0.93	-2.782178444399187e-18	-3.25653351378342e-27	4.795078094752137e-16	-5.68595878189783e-26	0	-2.615944775324335e-17	3.959327775569434e-20	-9.777225845989388e-19	-1.891789268132975e-17	-2.240964502670855e-15	2.049747462313725e-25	3.407461818857179e-16	0	-2.861075708943118e-17	-8.180236990305938e-19	1.426943828137383e-21	-7.27721535398917e-17	-1.301148954164418e-26	4.207879317868669e-18	-1.463767149334693e-24	0.4867584916235235	-4.222080144536922	-3.178877055380024	44.97587249756	1.625311579215183	-1.062977633623729e-18	2.931583658500428e-17	-0.2309458348536952	0.01870946096053906	-0.09480759586185446	0.1277271633430127	-0.05199923005000155	-8.01853481628242e-19	-4.86987262559894e-18
0.05	4.900420400633275e-48	-7.892679509014175e-39	2.450210200316637e-48	-8.609577764811676e-42	0.93	-3.526483052466863e-38	-3.92033632050662e-47	5.38806921148701e-36	-6.272538112810592e-46	6.066426623274835e-21	2.36181056406627e-23	4.932924693133859e-40	-1.052357267868557e-38	-1.683771628589691e-37	-2.155227684594804e-35	2.509015245124237e-45	4.041051908615258e-36	6.066426623274835e-21	-1.578517743639699e-23	-7.892679509014175e-39	1.541538966604331e-41	-6.735086514358763e-37	-1.568134528202648e-46	4.209429071474227e-38	-1.505409147074542e-44	0.4574661951570482	-4.41371956825378	-3.194714174368166	45.28402681295109	1.415318638077383	-1.052357267868557e-38	3.367543257179381e-37	-0.284437513112696	0.04338994173330493	-0.1083346642508131	0.1416489618658756	-0.1001492014552026	-7.892679509014175e-39	-6.31414360721134e-38
0.06666666666666667	0	0	0	0	0.93	0	0	0	0	0	0	0	0	0	0	0	0	0	0	0	0	0	0	0	0	0.4460418453313116	-4.448009628481119	-3.184386000380033	45.48539006800736	1.266066535554753	0	0	-0.3441420839802642	0.07107618971956557	-0.1332868865084737	0.153213285332242	-0.1285390894449764	0	0
0.08333333333333333	0	0	0	0	0.93	0	0	0	0	0	0	0	0	0	0	0	0	0	0	0	0	0	0	0	0	0.4223999114898319	-4.407637673836529	-3.111325650573922	45.56911189734627	1.274064211299632	0	0	-0.3988801652592158	0.08092543600174487	-0.1400232994416995	0.1507235692388036	-0.1315545704736029	0	0
0.1	1.684246998249095e-12	3.410274229409077e-14	-2.068493868140553e-12	0	0.93	0	1.479167657707617e-37	-6.107414297771992e-29	0	1.561507353117817e-07	2.725344540236472e-09	2.31530160473332e-37	0	0	1.479167657707617e-37	-6.107414297771992e-29	0	1.561507353117817e-07	2.725344540236472e-09	2.31530160473332e-37	0	0	1.684246998250178e-12	3.410274228967027e-14	-2.068493868139396e-12	0.3771303157823733	-4.376625796627448	-2.99361438937921	45.65732998786995	1.283058860063684	0	1.014367966960301e-37	-0.4781672613139745	0.09232098439081333	-0.140343075676179	0.167486002360651	-0.13371816170002	0	1.014367966960301e-37
0.1166666666666667	0	0	0	0	0.93	0	0	0	0	0	0	0	0	0	0	0	0	0	0	0	0	0	0	0	0	0.3601689403807378	-4.392038977141086	-2.878119561915089	45.75341191442958	1.230122528710297	0	0	-0.5657547576472485	0.08486490923085954	-0.1873229884775902	0.2125323478045068	-0.08163950968151437	0	0
0.1333333333333333	0	0	0	0	0.93	0	0	0	0	0	0	0	0	0	0	0	0	0	0	0	0	0	0	0	0	0.3133201654867694	-4.425538322904859	-2.768748742560489	45.85163852297779	1.123882552676306	0	0	-0.6696598334531337	0.07606489247973214	-0.2352760244297287	0.2805511136653082	-0.04828442789444248	0	0
0.15	0	0	0	0	0.93	0	0	0	0	0	-4.114230227878006e-38	0	0	0	0	0	0	0	-4.114230227878006e-38	0	0	0	0	0	0	0.2947054624340195	-4.415620904562179	-2.628176872697841	45.92473897410877	1.01072847036651	0	0	-0.7650876578234077	0.06264395631243275	-0.2803358323207123	0.3415634293869722	0.000945438219114994	0	0
0.1666666666666667	1.311938236528651e-12	-1.262949086754027e-12	-1.237790648186616e-12	0	0.93	0	1.946156815518438e-37	-6.107414297722598e-29	0	1.561507261300296e-07	2.725344405015127e-09	3.046241574985846e-37	0	0	1.946156815518438e-37	-6.107414297722598e-29	0	1.561507261300296e-07	2.725344405015127e-09	3.046241574985846e-37	0	0	1.31193823652858e-12	-1.262949086759793e-12	-1.237790648183944e-12	0.2063169544040943	-4.385829900235369	-2.461673815775827	46.03026330168374	0.8968452675611914	0	1.334588966107456e-37	-0.8687365437728846	0.0667685887927134	-0.3137425547278511	0.4037004710431402	0.01594571505198692	0	1.334588966107456e-37
0.1833333333333333	0	0	0	0	0.93	0	0	0	0	0	0	0	0	0	0	0	0	0	0	0	0	0	0	0	0	0.07822588731924154	-4.344171301644916	-2.314474812338647	46.17359353481435	0.795104577350037	0	0	-0.9379852363653201	0.08074067307382717	-0.2810060825758948	0.4446669428926745	-0.03160722535063137	0	0
0.2	-4.160624604366704e-26	-6.971297247342857e-18	-4.149613539660427e-27	-8.691681779676752e-27	0.93	1.496310710207034e-26	1.467710053209061e-32	-5.584509382987193e-24	0	0	-1.738142103166664e-17	1.005913182944056e-21	-1.549504334216036e-22	6.846497755418544e-18	-1.388074818136325e-23	-3.04856955985935e-32	-3.817271168380138e-24	0	-1.735644312830898e-17	-2.514890963881691e-23	7.156795865977614e-17	-1.827103311886571e-18	-4.160624604366704e-26	4.89651311725791e-24	5.867505903189963e-25	-0.09903469204831201	-4.324976076631732	-2.173875868336751	46.39167694153007	0.7355336225270392	-1.934454550688076e-20	-2.75753997945779e-19	-0.9835866188154687	0.1085633395123625	-0.2087632173595367	0.4836636768713968	-0.1444192293968675	-4.231644286830967e-19	-4.256964344005675e-21
